Coordinates
version=1
nRows=21
nColumns=22
inDegrees=yes

Units are S.I. units (second, meters, Newtons, ...)
If the header above contains a line with 'inDegrees', this indicates whether rotational values are in degrees (yes) or radians (no).

endheader
time	pelvis_tilt	pelvis_list	pelvis_rotation	pelvis_tx	pelvis_ty	pelvis_tz	hip_flexion_r	hip_adduction_r	hip_rotation_r	knee_angle_r	ankle_angle_r	subtalar_angle_r	hip_flexion_l	hip_adduction_l	hip_rotation_l	knee_angle_l	ankle_angle_l	subtalar_angle_l	lumbar_extension	lumbar_bending	lumbar_rotation
      0.01000000	     -1.54853172	      4.45474301	    177.13222816	      0.03766677	      1.02249039	      0.85925554	     -0.16684253	      6.34832518	     -3.63335935	    -10.52373855	      8.84898560	     -4.31561696	      0.05665862	     -3.33796102	    -11.28091502	    -11.59886731	     12.41722340	     -1.17419705	    -10.00920475	      3.10716566	      3.32960738
      0.02000000	     -1.54477737	      4.44694066	    177.10685165	      0.03764341	      1.02248339	      0.85898007	     -0.16499511	      6.35343933	     -3.63600416	    -10.52115606	      8.85095640	     -4.31682180	      0.05507513	     -3.34304681	    -11.27956446	    -11.59973472	     12.41625933	     -1.17173272	    -10.01565319	      3.10673094	      3.32087017
      0.03000000	     -1.55208792	      4.44039105	    177.02341110	      0.03759370	      1.02249796	      0.85857689	     -0.16657666	      6.36346388	     -3.55291299	    -10.54404605	      8.87937136	     -4.35454733	      0.02264786	     -3.35405363	    -11.38905413	    -11.58445070	     12.40424074	     -1.11026604	    -10.03334915	      3.10578273	      3.36012990
      0.04000000	     -1.55163271	      4.43491200	    176.98016896	      0.03755649	      1.02249896	      0.85821525	     -0.16147351	      6.37487307	     -3.52903930	    -10.55824255	      8.87275769	     -4.36394616	      0.00669948	     -3.36474239	    -11.41680789	    -11.57140480	     12.40999434	     -1.09367061	    -10.04371252	      3.11448361	      3.35144831
      0.05000000	     -1.55758550	      4.43815188	    176.90803106	      0.03751131	      1.02251039	      0.85778759	     -0.16343485	      6.39720689	     -3.47134967	    -10.57530472	      8.87999486	     -4.38515960	     -0.01715623	     -3.38899179	    -11.49566954	    -11.56926239	     12.41188352	     -1.06039982	    -10.06043448	      3.12902879	      3.40681160
      0.06000000	     -1.55564193	      4.42558316	    176.88415902	      0.03746487	      1.02250865	      0.85742517	     -0.16454670	      6.40255342	     -3.47310794	    -10.57336342	      8.88010759	     -4.38586451	     -0.02017413	     -3.39461859	    -11.49346970	    -11.57434758	     12.41226315	     -1.05869227	    -10.06246301	      3.13160836	      3.40274463
      0.07000000	     -1.56480114	      4.43441211	    176.80762267	      0.03743978	      1.02252397	      0.85696419	     -0.16688512	      6.43323451	     -3.39401562	    -10.59518985	      8.88395133	     -4.41105217	     -0.04333471	     -3.42860891	    -11.59299902	    -11.58049153	     12.43361640	     -1.00914204	    -10.08594799	      3.15046106	      3.47965634
      0.08000000	     -1.56958686	      4.42761004	    176.78288759	      0.03742433	      1.02253264	      0.85660667	     -0.16186376	      6.44383503	     -3.37891215	    -10.61785977	      8.88089742	     -4.41642435	     -0.05035897	     -3.44053139	    -11.59805606	    -11.58920557	     12.43354634	     -0.99537855	    -10.10108787	      3.16574644	      3.47739189
      0.09000000	     -1.56797529	      4.41584044	    176.76529987	      0.03740290	      1.02253580	      0.85623852	     -0.16009118	      6.45109335	     -3.38058287	    -10.61826543	      8.88198899	     -4.41733073	     -0.05111148	     -3.44871393	    -11.59642152	    -11.59366156	     12.43358638	     -0.99282347	    -10.10872449	      3.17046484	      3.47648747
      0.10000000	     -1.58084082	      4.42221066	    176.74164974	      0.03743811	      1.02255169	      0.85586367	     -0.14863157	      6.47663716	     -3.35950287	    -10.66690286	      8.88790672	     -4.42536902	     -0.05555794	     -3.47902196	    -11.60837357	    -11.62025466	     12.43594384	     -0.97326522	    -10.14600721	      3.19888769	      3.49045084
      0.11000000	     -1.59222912	      4.43179404	    176.71004199	      0.03743556	      1.02256607	      0.85545163	     -0.15669930	      6.50835121	     -3.33360059	    -10.67725353	      8.89933639	     -4.44364476	     -0.06173702	     -3.51720954	    -11.66273838	    -11.64775311	     12.46784026	     -0.91253620	    -10.17722701	      3.22701723	      3.51680447
      0.12000000	     -1.60578424	      4.42636688	    176.69389356	      0.03745970	      1.02258648	      0.85506165	     -0.15625813	      6.52323072	     -3.31778604	    -10.70437608	      8.90240697	     -4.45996828	     -0.07007780	     -3.53558698	    -11.66728981	    -11.66509275	     12.46949758	     -0.85037559	    -10.21610301	      3.24201389	      3.51081884
      0.13000000	     -1.61021496	      4.41467984	    176.68023630	      0.03747338	      1.02259184	      0.85465736	     -0.14467728	      6.53301609	     -3.30443833	    -10.73415882	      8.90108299	     -4.46244733	     -0.07338780	     -3.54725764	    -11.66237876	    -11.67260928	     12.46889936	     -0.84431608	    -10.24167569	      3.25069888	      3.48970759
      0.14000000	     -1.61600837	      4.40534212	    176.66668419	      0.03749124	      1.02259546	      0.85423545	     -0.13262026	      6.54657565	     -3.29050235	    -10.76803293	      8.90685991	     -4.46749982	     -0.07679332	     -3.56297386	    -11.65959395	    -11.68299465	     12.46804112	     -0.83558560	    -10.27182955	      3.26274038	      3.47263723
      0.15000000	     -1.62034201	      4.39651985	    176.65308202	      0.03750126	      1.02259494	      0.85379569	     -0.11976953	      6.56203914	     -3.27533754	    -10.80152777	      8.91667584	     -4.47523942	     -0.08176317	     -3.58031800	    -11.66075218	    -11.68849354	     12.46831916	     -0.82427871	    -10.30071175	      3.27621875	      3.45744136
      0.16000000	     -1.62181586	      4.38716618	    176.63939718	      0.03749805	      1.02258845	      0.85333989	     -0.10612153	      6.57861849	     -3.25868547	    -10.83312369	      8.92776671	     -4.48523259	     -0.08788761	     -3.59735655	    -11.66410175	    -11.68711471	     12.46839801	     -0.81143805	    -10.32561999	      3.28988845	      3.44390692
      0.17000000	     -1.61992636	      4.37715113	    176.62758023	      0.03748924	      1.02257661	      0.85287538	     -0.09039572	      6.59576048	     -3.24044370	    -10.86235119	      8.94003440	     -4.49796855	     -0.09445215	     -3.61395669	    -11.66938464	    -11.67771773	     12.46702401	     -0.79687465	    -10.34760321	      3.30411145	      3.43141104
      0.18000000	     -1.61412733	      4.36596755	    176.61872253	      0.03747269	      1.02255874	      0.85240988	     -0.07354057	      6.61251432	     -3.22226358	    -10.88733487	      8.95355124	     -4.51425705	     -0.10070158	     -3.62902341	    -11.67602706	    -11.66058787	     12.46310766	     -0.78006818	    -10.36633965	      3.31886110	      3.41891416
      0.19000000	     -1.60110685	      4.35115599	    176.60642687	      0.03745242	      1.02253083	      0.85193066	     -0.05350561	      6.62792970	     -3.19648662	    -10.90391680	      8.98600161	     -4.58414583	     -0.10297012	     -3.64025517	    -11.68896648	    -11.63726712	     12.44765590	     -0.71299803	    -10.37738873	      3.32883292	      3.42562548
      0.20000000	     -1.59066663	      4.33412616	    176.61173288	      0.03743347	      1.02250941	      0.85148199	     -0.03791465	      6.63972621	     -3.19056798	    -10.91588669	      8.98304677	     -4.59258450	     -0.10557474	     -3.64823093	    -11.69507149	    -11.61213385	     12.44656906	     -0.70578526	    -10.39526343	      3.34084806	      3.39530504
      0.21000000	     -1.57379964	      4.31918959	    176.63566646	      0.03740928	      1.02247839	      0.85106198	     -0.02389332	      6.65446463	     -3.20635856	    -10.91217627	      8.99628799	     -4.64013113	     -0.10252336	     -3.65705777	    -11.66682783	    -11.57888467	     12.42044413	     -0.67033908	    -10.40705840	      3.36001132	      3.35502644
